<svg width="50" height="50" viewBox="0 0 50 50" fill="none" xmlns="http://www.w3.org/2000/svg">
<path fill-rule="evenodd" clip-rule="evenodd" d="M33.6823 48.896V30.3885H39.8952L40.8248 23.1767H33.6799V18.572C33.6799 16.4835 34.2606 15.0593 37.2571 15.0593H41.0757V8.60734C39.2265 8.40865 37.3677 8.31292 35.5079 8.32059C30.0023 8.32059 26.2339 11.6828 26.2339 17.8551V23.1767H20.0018V30.3885H26.2315V48.896H3.52316C2.0655 48.896 0.88504 47.7155 0.88504 46.2578V3.74212C0.88504 2.28447 2.0655 1.104 3.52316 1.104H46.0389C47.4965 1.104 48.677 2.28447 48.677 3.74212V46.2578C48.677 47.7155 47.4965 48.896 46.0389 48.896H33.6823Z" fill="#FAFAFF"/>
</svg>
