<svg width="33" height="33" viewBox="0 0 33 33" fill="none" xmlns="http://www.w3.org/2000/svg">
<g clip-path="url(#clip0_196_246)">
<path d="M12.3679 2.06128C11.0886 2.06061 9.84048 2.45676 8.79569 3.19512C7.7509 3.93349 6.96084 4.97773 6.53439 6.18392H0V10.3066H6.53439C6.96026 11.5135 7.75003 12.5587 8.79483 13.298C9.83963 14.0373 11.088 14.4343 12.3679 14.4343C13.6478 14.4343 14.8962 14.0373 15.941 13.298C16.9858 12.5587 17.7756 11.5135 18.2015 10.3066H32.9811V6.18392H18.2015C17.775 4.97773 16.9849 3.93349 15.9402 3.19512C14.8954 2.45676 13.6473 2.06061 12.3679 2.06128ZM10.3066 8.24524C10.3066 7.69855 10.5238 7.17424 10.9104 6.78767C11.2969 6.4011 11.8212 6.18392 12.3679 6.18392C12.9146 6.18392 13.4389 6.4011 13.8255 6.78767C14.2121 7.17424 14.4292 7.69855 14.4292 8.24524C14.4292 8.79194 14.2121 9.31624 13.8255 9.70282C13.4389 10.0894 12.9146 10.3066 12.3679 10.3066C11.8212 10.3066 11.2969 10.0894 10.9104 9.70282C10.5238 9.31624 10.3066 8.79194 10.3066 8.24524ZM20.6132 18.5518C19.3338 18.5512 18.0858 18.9473 17.041 19.6857C15.9962 20.4241 15.2061 21.4683 14.7797 22.6745H0V26.7971H14.7797C15.2055 28.0041 15.9953 29.0493 17.0401 29.7885C18.0849 30.5278 19.3333 30.9248 20.6132 30.9248C21.8931 30.9248 23.1415 30.5278 24.1863 29.7885C25.2311 29.0493 26.0209 28.0041 26.4467 26.7971H32.9811V22.6745H26.4467C26.0203 21.4683 25.2302 20.4241 24.1854 19.6857C23.1406 18.9473 21.8926 18.5512 20.6132 18.5518ZM18.5519 24.7358C18.5519 24.1891 18.7691 23.6648 19.1556 23.2782C19.5422 22.8917 20.0665 22.6745 20.6132 22.6745C21.1599 22.6745 21.6842 22.8917 22.0708 23.2782C22.4574 23.6648 22.6745 24.1891 22.6745 24.7358C22.6745 25.2825 22.4574 25.8068 22.0708 26.1934C21.6842 26.58 21.1599 26.7971 20.6132 26.7971C20.0665 26.7971 19.5422 26.58 19.1556 26.1934C18.7691 25.8068 18.5519 25.2825 18.5519 24.7358Z" fill="#0D090A"/>
</g>
<defs>
<clipPath id="clip0_196_246">
<rect width="32.9811" height="32.9811" fill="white"/>
</clipPath>
</defs>
</svg>
