<svg width="51" height="51" viewBox="0 0 51 51" fill="none" xmlns="http://www.w3.org/2000/svg">
<g clip-path="url(#clip0_127_461)">
<path d="M14.7817 0.298218H35.1111C42.8557 0.298218 49.1482 6.59067 49.1482 14.3352V34.6647C49.1482 38.3876 47.6693 41.9579 45.0368 44.5904C42.4044 47.2228 38.834 48.7017 35.1111 48.7017H14.7817C7.03711 48.7017 0.744659 42.4093 0.744659 34.6647V14.3352C0.744659 10.6124 2.22356 7.04202 4.85601 4.40956C7.48846 1.77711 11.0588 0.298218 14.7817 0.298218ZM14.2976 5.13857C11.9869 5.13857 9.77081 6.0565 8.13688 7.69044C6.50294 9.32437 5.58501 11.5405 5.58501 13.8512V35.1487C5.58501 39.9649 9.48149 43.8614 14.2976 43.8614H35.5952C37.9059 43.8614 40.122 42.9434 41.7559 41.3095C43.3899 39.6756 44.3078 37.4595 44.3078 35.1487V13.8512C44.3078 9.03505 40.4113 5.13857 35.5952 5.13857H14.2976ZM37.6523 8.76883C38.4547 8.76883 39.2241 9.08756 39.7915 9.6549C40.3588 10.2222 40.6775 10.9917 40.6775 11.794C40.6775 12.5964 40.3588 13.3659 39.7915 13.9332C39.2241 14.5005 38.4547 14.8193 37.6523 14.8193C36.85 14.8193 36.0805 14.5005 35.5132 13.9332C34.9458 13.3659 34.6271 12.5964 34.6271 11.794C34.6271 10.9917 34.9458 10.2222 35.5132 9.6549C36.0805 9.08756 36.85 8.76883 37.6523 8.76883ZM24.9464 12.3991C28.1558 12.3991 31.2337 13.674 33.503 15.9434C35.7724 18.2127 37.0473 21.2906 37.0473 24.5C37.0473 27.7093 35.7724 30.7872 33.503 33.0566C31.2337 35.3259 28.1558 36.6008 24.9464 36.6008C21.7371 36.6008 18.6592 35.3259 16.3898 33.0566C14.1204 30.7872 12.8455 27.7093 12.8455 24.5C12.8455 21.2906 14.1204 18.2127 16.3898 15.9434C18.6592 13.674 21.7371 12.3991 24.9464 12.3991ZM24.9464 17.2394C23.0208 17.2394 21.1741 18.0044 19.8124 19.366C18.4508 20.7276 17.6859 22.5744 17.6859 24.5C17.6859 26.4256 18.4508 28.2723 19.8124 29.6339C21.1741 30.9955 23.0208 31.7605 24.9464 31.7605C26.872 31.7605 28.7188 30.9955 30.0804 29.6339C31.442 28.2723 32.2069 26.4256 32.2069 24.5C32.2069 22.5744 31.442 20.7276 30.0804 19.366C28.7188 18.0044 26.872 17.2394 24.9464 17.2394Z" fill="#FAFAFF"/>
</g>
<defs>
<clipPath id="clip0_127_461">
<rect width="50.6375" height="50.6375" fill="white"/>
</clipPath>
</defs>
</svg>
