<svg width="42" height="52" viewBox="0 0 42 52" fill="none" xmlns="http://www.w3.org/2000/svg">
<path fill-rule="evenodd" clip-rule="evenodd" d="M6.83782 6.96492C10.5256 3.14356 15.4966 1.00122 20.6758 1.00122C25.8549 1.00122 30.8259 3.14356 34.5137 6.96492C42.2575 14.9681 42.2575 27.7763 34.6145 35.6735L20.6758 50.0833L6.73457 35.6735C4.92085 33.8112 3.47966 31.5867 2.49571 29.1307C1.51175 26.6748 1.00488 24.0369 1.00488 21.3722C1.00488 18.7074 1.51175 16.0696 2.49571 13.6136C3.47966 11.1577 4.92085 8.93315 6.73457 7.07084L6.83782 6.96492ZM20.6684 13.9167C19.3644 13.9167 18.1139 14.461 17.1918 15.43C16.2697 16.3989 15.7517 17.7131 15.7517 19.0833C15.7517 20.4536 16.2697 21.7678 17.1918 22.7367C18.1139 23.7057 19.3644 24.25 20.6684 24.25C21.9724 24.25 23.223 23.7057 24.145 22.7367C25.0671 21.7678 25.5851 20.4536 25.5851 19.0833C25.5851 17.7131 25.0671 16.3989 24.145 15.43C23.223 14.461 21.9724 13.9167 20.6684 13.9167Z" fill="#785FE6"/>
<path d="M34.5138 6.96497C42.2575 14.9681 42.2575 27.7763 34.617 35.6736L20.6758 50.0834L6.72969 35.6736C4.91597 33.8112 3.47478 31.5867 2.49083 29.1308C1.50687 26.6748 1 24.037 1 21.3722C1 18.7075 1.50687 16.0696 2.49083 13.6137C3.47478 11.1577 4.91597 8.9332 6.72969 7.07089L6.83294 6.96497C10.5208 3.14283 15.4924 1 20.6721 1C25.8519 1 30.8259 3.14283 34.5138 6.96497ZM34.5138 6.96497C34.4105 6.85647 34.4105 6.85647 34.5138 6.96497ZM25.5851 19.0834C25.5851 20.4537 25.0671 21.7678 24.145 22.7368C23.223 23.7057 21.9724 24.2501 20.6684 24.2501C19.3645 24.2501 18.1139 23.7057 17.1918 22.7368C16.2698 21.7678 15.7518 20.4537 15.7518 19.0834C15.7518 17.7131 16.2698 16.3989 17.1918 15.43C18.1139 14.4611 19.3645 13.9167 20.6684 13.9167C21.9724 13.9167 23.223 14.4611 24.145 15.43C25.0671 16.3989 25.5851 17.7131 25.5851 19.0834Z" stroke="#FAFAFF" stroke-width="2" stroke-miterlimit="10" stroke-linecap="round" stroke-linejoin="round"/>
</svg>
