<svg width="49" height="49" viewBox="0 0 49 49" fill="none" xmlns="http://www.w3.org/2000/svg">
<g clip-path="url(#clip0_127_465)">
<path fill-rule="evenodd" clip-rule="evenodd" d="M12.9989 1.7842C16.7841 1.36127 20.735 0.991211 24.781 0.991211C28.827 0.991211 32.7779 1.36127 36.5631 1.7842C39.4401 2.11409 42.1201 3.41027 44.1649 5.46082C46.2096 7.51137 47.4983 10.195 47.8201 13.0729C48.2254 16.8405 48.5708 20.7632 48.5708 24.781C48.5708 28.7988 48.2254 32.7215 47.8201 36.4891C47.4983 39.367 46.2096 42.0506 44.1649 44.1012C42.1201 46.1517 39.4401 47.4479 36.5631 47.7778C32.7779 48.2007 28.827 48.5708 24.781 48.5708C20.735 48.5708 16.7841 48.2007 12.9989 47.7778C10.1219 47.4479 7.44191 46.1517 5.39712 44.1012C3.35233 42.0506 2.0637 39.367 1.74191 36.4891C1.3366 32.7215 0.991211 28.7988 0.991211 24.781C0.991211 20.7632 1.3366 16.8405 1.74191 13.0729C2.0637 10.195 3.35233 7.51137 5.39712 5.46082C7.44191 3.41027 10.1219 2.11409 12.9989 1.7842ZM29.4755 10.2675C29.3538 9.74011 29.0423 9.27601 28.6003 8.9637C28.1583 8.65139 27.6168 8.51273 27.0791 8.57417C26.5414 8.63561 26.0451 8.89285 25.6849 9.29682C25.3248 9.70078 25.126 10.2232 25.1264 10.7644V31.1249C25.1264 32.2068 24.8056 33.2643 24.2045 34.1638C23.6035 35.0634 22.7492 35.7644 21.7497 36.1784C20.7502 36.5924 19.6504 36.7008 18.5894 36.4897C17.5283 36.2787 16.5537 35.7577 15.7887 34.9927C15.0237 34.2277 14.5028 33.2531 14.2917 32.1921C14.0807 31.131 14.189 30.0312 14.603 29.0317C15.017 28.0322 15.7181 27.1779 16.6176 26.5769C17.5171 25.9758 18.5747 25.655 19.6565 25.655C20.2407 25.655 20.801 25.423 21.2141 25.0099C21.6272 24.5968 21.8593 24.0365 21.8593 23.4523C21.8593 22.8681 21.6272 22.3078 21.2141 21.8947C20.801 21.4816 20.2407 21.2495 19.6565 21.2495C17.7033 21.2495 15.794 21.8287 14.17 22.9138C12.546 23.999 11.2803 25.5413 10.5328 27.3458C9.78537 29.1503 9.5898 31.1359 9.97085 33.0515C10.3519 34.9672 11.2924 36.7268 12.6735 38.1079C14.0546 39.489 15.8143 40.4295 17.7299 40.8106C19.6455 41.1916 21.6312 40.9961 23.4356 40.2486C25.2401 39.5012 26.7825 38.2354 27.8676 36.6114C28.9527 34.9874 29.5319 33.0781 29.5319 31.1249V18.8247C31.6465 20.6222 34.3744 21.609 37.5746 21.609C38.1588 21.609 38.7191 21.3769 39.1322 20.9638C39.5453 20.5507 39.7774 19.9905 39.7774 19.4063C39.7774 18.8221 39.5453 18.2618 39.1322 17.8487C38.7191 17.4356 38.1588 17.2035 37.5746 17.2035C35.2485 17.2035 33.5215 16.4845 32.2492 15.3532C30.9522 14.1972 29.9901 12.4773 29.4755 10.2675Z" fill="#FAFAFF"/>
</g>
<defs>
<clipPath id="clip0_127_465">
<rect width="48.5708" height="48.5708" fill="white"/>
</clipPath>
</defs>
</svg>
